<?xml version="1.0" encoding="UTF-8"?>
<!-- Generator: Adobe Illustrator 15.1.0, SVG Export Plug-In . SVG Version: 6.00 Build 0)  -->
<svg xmlns="http://www.w3.org/2000/svg" xmlns:xlink="http://www.w3.org/1999/xlink" version="1.1" id="Ebene_1" x="0px" y="0px" width="153.258px" height="43px" viewBox="0 0 153.258 43" xml:space="preserve">
<g>
	<polygon points="11.135,0.502 7.182,5.333 7.182,0.502 0.407,0.502 0.407,21.424 7.182,21.424 7.182,14.962 11.636,21.424    19.699,21.424 11.95,10.069 19.322,0.502  "></polygon>
	<polygon points="40.558,21.425 47.114,21.425 47.114,13.395 52.854,21.425 58.375,21.425 58.375,0.502 51.819,0.502 51.819,8.563    46.047,0.502 40.558,0.502  "></polygon>
	<g>
		<defs>
			<rect id="SVGID_1_" x="0.407" width="152.258" height="39.118"></rect>
		</defs>
		<clipPath id="SVGID_2_">
			<use xlink:href="#SVGID_1_" overflow="visible"></use>
		</clipPath>
		<path clip-path="url(#SVGID_2_)" d="M60.005,21.205c0.502,0.146,1.056,0.271,1.662,0.376c0.523,0.104,1.124,0.193,1.804,0.267    c0.679,0.073,1.417,0.11,2.212,0.11c1.317,0,2.457-0.173,3.419-0.519c0.961-0.345,1.751-0.814,2.368-1.41    c0.617-0.597,1.071-1.298,1.364-2.103s0.44-1.667,0.44-2.588c0-0.878-0.142-1.673-0.424-2.384c-0.282-0.71-0.627-1.35-1.035-1.913    c-0.408-0.565-0.858-1.067-1.349-1.506c-0.491-0.439-0.941-0.826-1.349-1.161c-0.407-0.334-0.752-0.627-1.035-0.878    C67.8,7.246,67.66,7.037,67.66,6.87c0-0.188,0.063-0.334,0.188-0.439c0.125-0.104,0.272-0.178,0.439-0.22s0.345-0.068,0.533-0.078    c0.189-0.011,0.345-0.016,0.471-0.016c0.23,0,0.449,0.011,0.659,0.03c0.208,0.021,0.397,0.043,0.564,0.063    c0.209,0.021,0.397,0.042,0.565,0.062V0.408c-0.439-0.063-0.889-0.125-1.349-0.188c-0.397-0.042-0.847-0.089-1.349-0.141    S67.376,0,66.875,0c-0.963,0-1.867,0.131-2.714,0.392c-0.847,0.263-1.584,0.644-2.211,1.146c-0.628,0.502-1.119,1.13-1.474,1.882    c-0.356,0.753-0.534,1.621-0.534,2.604c0,0.878,0.146,1.657,0.439,2.338c0.293,0.68,0.664,1.29,1.114,1.835    c0.449,0.544,0.93,1.024,1.443,1.442c0.512,0.418,0.993,0.8,1.443,1.146c0.449,0.345,0.82,0.657,1.113,0.94    c0.293,0.282,0.44,0.56,0.44,0.831c0,0.711-0.482,1.066-1.443,1.066c-0.544,0-1.083-0.031-1.616-0.094    c-0.533-0.062-1.009-0.146-1.427-0.252c-0.502-0.083-0.983-0.197-1.443-0.345V21.205z"></path>
	</g>
	<polygon points="74.686,21.425 87.233,21.425 87.233,15.936 81.367,15.936 81.367,13.52 86.919,13.52 86.919,8.312 81.367,8.312    81.367,5.991 87.014,5.991 87.014,0.502 74.686,0.502  "></polygon>
	<polygon points="89.115,21.425 95.889,21.425 95.889,14.962 100.344,21.425 108.406,21.425 100.658,10.069 108.03,0.502    99.842,0.502 95.889,5.332 95.889,0.502 89.115,0.502  "></polygon>
	<g>
		<defs>
			<rect id="SVGID_3_" x="0.407" width="152.258" height="39.118"></rect>
		</defs>
		<clipPath id="SVGID_4_">
			<use xlink:href="#SVGID_3_" overflow="visible"></use>
		</clipPath>
		<path clip-path="url(#SVGID_4_)" d="M152.527,32.058c-0.211-0.212-0.483-0.379-0.82-0.504c-0.335-0.124-0.704-0.186-1.11-0.186    c-0.586,0-1.057,0.145-1.414,0.436s-0.535,0.648-0.535,1.07c0,0.426,0.158,0.756,0.477,0.993s0.807,0.426,1.463,0.569    c0.555,0.123,0.938,0.28,1.151,0.475s0.319,0.42,0.319,0.679c0,0.276-0.129,0.512-0.383,0.705    c-0.256,0.194-0.604,0.291-1.047,0.291c-0.272,0-0.533-0.037-0.783-0.109c-0.25-0.073-0.457-0.192-0.621-0.355l-0.086-0.786    h-0.496v1.113c0.246,0.207,0.535,0.368,0.871,0.481c0.334,0.114,0.707,0.172,1.115,0.172c0.612,0,1.105-0.143,1.479-0.427    c0.371-0.283,0.559-0.655,0.559-1.115c0-0.436-0.164-0.78-0.49-1.033c-0.326-0.254-0.818-0.454-1.476-0.601    c-0.575-0.126-0.959-0.272-1.151-0.438c-0.192-0.167-0.289-0.378-0.289-0.633c0-0.26,0.112-0.485,0.336-0.678    c0.223-0.191,0.557-0.287,1.002-0.287c0.304,0,0.572,0.044,0.805,0.132c0.232,0.089,0.426,0.213,0.579,0.373l0.071,0.78h0.5    L152.527,32.058z M139.242,31.991v4.487l-0.832,0.066v0.449h2.276v-0.449l-0.831-0.066v-3.364c0.102-0.371,0.28-0.666,0.532-0.886    c0.254-0.22,0.6-0.329,1.035-0.329c0.426,0,0.76,0.144,1.004,0.431c0.242,0.288,0.364,0.765,0.364,1.432v2.717l-0.833,0.066v0.449    h2.277v-0.449l-0.832-0.066v-2.797c0-0.038-0.001-0.068-0.002-0.093c-0.002-0.023-0.003-0.05-0.003-0.077    c0.061-0.47,0.22-0.855,0.478-1.158c0.256-0.304,0.623-0.454,1.1-0.454c0.43,0,0.764,0.14,1.004,0.421s0.359,0.762,0.359,1.441    v2.712l-0.832,0.071v0.449h2.282v-0.449l-0.832-0.071v-2.7c0-0.821-0.161-1.428-0.483-1.818c-0.32-0.391-0.776-0.587-1.365-0.587    c-0.442,0-0.817,0.111-1.125,0.334c-0.309,0.223-0.547,0.529-0.713,0.917c-0.122-0.422-0.325-0.736-0.607-0.942    c-0.283-0.206-0.635-0.309-1.057-0.309c-0.408,0-0.762,0.088-1.057,0.265c-0.297,0.178-0.533,0.429-0.709,0.751l-0.058-0.914    h-1.373v0.454L139.242,31.991z M133.725,36.287c-0.205-0.182-0.309-0.421-0.309-0.717c0-0.352,0.166-0.642,0.498-0.871    c0.332-0.23,0.775-0.344,1.33-0.344h1.23v1.106c-0.15,0.324-0.394,0.588-0.73,0.792s-0.727,0.307-1.169,0.307    C134.215,36.561,133.932,36.469,133.725,36.287 M137.674,36.994v-0.449l-0.551-0.036c-0.018-0.099-0.029-0.199-0.033-0.304    c-0.006-0.103-0.008-0.212-0.008-0.324v-2.716c0-0.579-0.186-1.022-0.557-1.333c-0.371-0.309-0.861-0.464-1.471-0.464    c-0.401,0-0.78,0.061-1.135,0.184c-0.356,0.122-0.662,0.282-0.918,0.48l-0.005,1.062h0.507l0.051-0.74    c0.17-0.144,0.381-0.257,0.635-0.339c0.254-0.085,0.533-0.125,0.84-0.125c0.456,0,0.811,0.111,1.064,0.337    c0.254,0.224,0.381,0.533,0.381,0.929v0.729h-1.221c-0.752,0-1.348,0.15-1.787,0.449c-0.438,0.3-0.658,0.705-0.658,1.215    c0,0.478,0.147,0.855,0.445,1.135c0.295,0.278,0.713,0.418,1.256,0.418c0.424,0,0.808-0.096,1.147-0.286    c0.341-0.19,0.612-0.431,0.817-0.72c0,0.14,0.009,0.277,0.025,0.413c0.018,0.137,0.047,0.299,0.086,0.485H137.674z M130.65,32.374    c0.282,0.323,0.424,0.726,0.424,1.205v0.153h-3.237l-0.011-0.026c0.052-0.521,0.231-0.954,0.539-1.299    c0.308-0.346,0.687-0.518,1.136-0.518C129.984,31.89,130.367,32.05,130.65,32.374 M130.715,36.91    c0.317-0.128,0.58-0.3,0.787-0.518l-0.261-0.419c-0.19,0.196-0.42,0.349-0.688,0.453c-0.27,0.106-0.592,0.159-0.971,0.159    c-0.537,0-0.973-0.21-1.305-0.631c-0.332-0.42-0.497-0.939-0.497-1.56v-0.148h3.899v-0.52c0-0.716-0.193-1.287-0.582-1.717    c-0.387-0.429-0.92-0.643-1.598-0.643c-0.643,0-1.191,0.26-1.646,0.781c-0.455,0.521-0.683,1.176-0.683,1.966v0.28    c0,0.787,0.229,1.434,0.685,1.942s1.03,0.764,1.726,0.764C130.022,37.102,130.4,37.038,130.715,36.91 M124.191,30.057v1.413    h-0.949v0.5h0.949v3.601c0,0.531,0.108,0.919,0.325,1.164c0.216,0.245,0.518,0.367,0.906,0.367c0.146,0,0.291-0.013,0.438-0.035    c0.146-0.024,0.271-0.059,0.373-0.104l-0.093-0.454c-0.123,0.021-0.23,0.035-0.324,0.043c-0.094,0.01-0.189,0.014-0.288,0.014    c-0.218,0-0.392-0.075-0.522-0.228c-0.132-0.15-0.197-0.408-0.197-0.768V31.97h1.215v-0.5h-1.215v-1.413H124.191z M119.208,34.385    c0,0.667-0.134,1.198-0.402,1.594c-0.27,0.395-0.67,0.592-1.2,0.592c-0.405,0-0.742-0.094-1.013-0.283    c-0.271-0.188-0.475-0.443-0.61-0.763v-2.497c0.126-0.33,0.319-0.602,0.579-0.812c0.261-0.211,0.604-0.315,1.033-0.315    c0.531,0,0.934,0.22,1.205,0.661c0.272,0.44,0.408,1.013,0.408,1.718V34.385z M119.826,34.278c0-0.881-0.187-1.587-0.562-2.116    s-0.894-0.794-1.558-0.794c-0.394,0-0.735,0.084-1.021,0.253c-0.286,0.168-0.521,0.407-0.704,0.717V29.03h-1.44v0.454l0.832,0.065    v7.444h0.521l0.066-0.832c0.18,0.303,0.416,0.535,0.709,0.697c0.293,0.161,0.643,0.242,1.047,0.242    c0.657,0,1.172-0.246,1.547-0.737c0.375-0.492,0.562-1.152,0.562-1.979V34.278z M110.26,36.287    c-0.205-0.182-0.309-0.421-0.309-0.717c0-0.352,0.166-0.642,0.498-0.871c0.332-0.23,0.775-0.344,1.33-0.344h1.23v1.106    c-0.149,0.324-0.394,0.588-0.73,0.792s-0.727,0.307-1.169,0.307C110.75,36.561,110.467,36.469,110.26,36.287 M114.209,36.994    v-0.449l-0.551-0.036c-0.018-0.099-0.027-0.199-0.033-0.304c-0.005-0.103-0.008-0.212-0.008-0.324v-2.716    c0-0.579-0.186-1.022-0.557-1.333c-0.371-0.309-0.861-0.464-1.471-0.464c-0.401,0-0.779,0.061-1.136,0.184    c-0.356,0.122-0.661,0.282-0.916,0.48l-0.005,1.062h0.505l0.052-0.74c0.17-0.144,0.381-0.257,0.635-0.339    c0.254-0.085,0.533-0.125,0.841-0.125c0.456,0,0.81,0.111,1.063,0.337c0.254,0.224,0.381,0.533,0.381,0.929v0.729h-1.221    c-0.752,0-1.348,0.15-1.787,0.449c-0.438,0.3-0.658,0.705-0.658,1.215c0,0.478,0.148,0.855,0.444,1.135    c0.296,0.278,0.716,0.418,1.257,0.418c0.424,0,0.807-0.096,1.148-0.286c0.34-0.19,0.611-0.431,0.816-0.72    c0,0.14,0.008,0.277,0.025,0.413c0.018,0.137,0.046,0.299,0.087,0.485H114.209z M106.904,29.55v6.929l-0.832,0.066v0.449h2.272    v-0.449l-0.832-0.066V29.03h-1.44v0.454L106.904,29.55z M99.19,36.994h2.92v-0.893l-0.715-0.154v-2.686    c0.074-0.156,0.184-0.276,0.326-0.361c0.144-0.086,0.324-0.128,0.541-0.128l0.613,0.015l0.158-1.358    c-0.059-0.017-0.13-0.03-0.217-0.043c-0.086-0.012-0.169-0.018-0.247-0.018c-0.269,0-0.506,0.08-0.71,0.24s-0.371,0.383-0.5,0.669    l-0.066-0.808h-2.181v0.899l0.792,0.153v3.425l-0.715,0.154V36.994z M96.691,32.8c0.147,0.189,0.222,0.442,0.222,0.759v0.133    h-1.828l-0.015-0.026c0.037-0.343,0.136-0.621,0.296-0.832s0.378-0.315,0.652-0.315C96.319,32.518,96.543,32.611,96.691,32.8     M97.365,36.918c0.362-0.123,0.657-0.273,0.886-0.455l-0.404-0.919c-0.258,0.144-0.496,0.248-0.715,0.314    c-0.217,0.066-0.49,0.1-0.822,0.1c-0.37,0-0.664-0.118-0.879-0.353c-0.217-0.234-0.338-0.534-0.365-0.898l0.01-0.031h3.298v-0.812    c0-0.765-0.206-1.373-0.618-1.822s-0.99-0.674-1.736-0.674c-0.758-0.003-1.363,0.26-1.814,0.791s-0.676,1.207-0.676,2.027v0.204    c0,0.786,0.238,1.435,0.715,1.945c0.477,0.51,1.113,0.766,1.909,0.766C96.598,37.102,97.002,37.04,97.365,36.918 M92.997,31.47    h-2.502v0.899l0.594,0.117l-0.517,2.532h-0.031L89.5,31.47h-1.001l-1.031,3.538h-0.031l-0.521-2.526l0.589-0.112V31.47h-2.502    v0.899l0.555,0.071l1.16,4.554h1.24l1.026-3.288h0.03l1.026,3.288h1.246l1.154-4.554l0.556-0.071V31.47z M80.754,34.182    c0-0.49,0.088-0.891,0.266-1.2c0.177-0.31,0.459-0.464,0.847-0.464s0.672,0.154,0.853,0.464s0.271,0.71,0.271,1.2v0.106    c0,0.501-0.089,0.904-0.269,1.21c-0.178,0.307-0.459,0.46-0.844,0.46c-0.396,0-0.681-0.153-0.857-0.457    c-0.178-0.305-0.266-0.709-0.266-1.213V34.182z M79.262,34.288c0,0.831,0.231,1.507,0.692,2.03    c0.461,0.521,1.103,0.783,1.923,0.783c0.809,0,1.445-0.262,1.906-0.783c0.461-0.523,0.691-1.199,0.691-2.03v-0.106    c0-0.827-0.23-1.504-0.691-2.027c-0.461-0.524-1.1-0.786-1.917-0.786c-0.813,0-1.451,0.263-1.912,0.789s-0.692,1.2-0.692,2.024    V34.288z M77.109,34.385c0,0.484-0.084,0.866-0.253,1.149c-0.168,0.283-0.433,0.424-0.794,0.424c-0.231,0-0.426-0.041-0.584-0.123    c-0.159-0.082-0.284-0.201-0.376-0.356v-2.42c0.092-0.171,0.217-0.302,0.376-0.394c0.158-0.092,0.349-0.138,0.574-0.138    c0.357,0,0.623,0.162,0.796,0.484c0.174,0.323,0.261,0.745,0.261,1.267V34.385z M73.617,32.522v5.544l-0.72,0.152v0.899h2.925    v-0.899l-0.72-0.152v-1.599c0.16,0.208,0.353,0.365,0.577,0.474c0.225,0.106,0.482,0.16,0.771,0.16    c0.677,0,1.205-0.248,1.583-0.745s0.567-1.154,0.567-1.972v-0.106c0-0.871-0.189-1.574-0.567-2.109    c-0.378-0.534-0.909-0.801-1.593-0.801c-0.303,0-0.568,0.065-0.796,0.194c-0.229,0.129-0.424,0.312-0.588,0.551l-0.071-0.644    H72.82v0.899L73.617,32.522z M63.829,32.522v3.425l-0.719,0.154v0.893h2.848v-0.893l-0.643-0.154v-2.981    c0.099-0.14,0.224-0.248,0.375-0.323c0.152-0.077,0.328-0.115,0.529-0.115c0.272,0,0.476,0.084,0.612,0.253    c0.137,0.168,0.205,0.456,0.205,0.865v2.302l-0.603,0.154v0.893h2.691v-0.893l-0.603-0.154v-2.583c0-0.048-0.001-0.094-0.005-0.14    c-0.003-0.047-0.005-0.103-0.005-0.166c0.092-0.167,0.215-0.298,0.37-0.392c0.155-0.093,0.338-0.14,0.549-0.14    c0.269,0,0.472,0.082,0.608,0.245c0.136,0.163,0.204,0.454,0.204,0.873v2.302l-0.643,0.154v0.893h2.854v-0.893l-0.72-0.154V33.65    c0-0.77-0.158-1.342-0.473-1.718c-0.314-0.376-0.744-0.564-1.289-0.564c-0.367,0-0.687,0.083-0.959,0.25    c-0.273,0.167-0.494,0.398-0.664,0.694c-0.13-0.316-0.32-0.554-0.572-0.709c-0.252-0.157-0.555-0.235-0.909-0.235    c-0.35,0-0.659,0.072-0.926,0.217c-0.268,0.146-0.49,0.351-0.667,0.615l-0.061-0.73h-2.18v0.899L63.829,32.522z M60.82,32.8    c0.148,0.189,0.222,0.442,0.222,0.759v0.133h-1.828l-0.015-0.026c0.037-0.343,0.136-0.621,0.296-0.832    c0.16-0.211,0.378-0.315,0.653-0.315C60.448,32.518,60.672,32.611,60.82,32.8 M61.494,36.918c0.362-0.123,0.657-0.273,0.886-0.455    l-0.404-0.919c-0.259,0.144-0.497,0.248-0.715,0.314c-0.217,0.066-0.491,0.1-0.822,0.1c-0.371,0-0.664-0.118-0.88-0.353    c-0.216-0.234-0.338-0.534-0.365-0.898l0.01-0.031h3.298v-0.812c0-0.765-0.206-1.373-0.618-1.822s-0.99-0.674-1.736-0.674    c-0.759-0.003-1.364,0.26-1.815,0.791c-0.451,0.531-0.676,1.207-0.676,2.027v0.204c0,0.786,0.238,1.435,0.715,1.945    c0.476,0.51,1.113,0.766,1.909,0.766C60.727,37.102,61.131,37.04,61.494,36.918 M53.144,32.374    c0.282,0.323,0.423,0.726,0.423,1.205v0.153h-3.236l-0.011-0.026c0.051-0.521,0.231-0.954,0.539-1.299    c0.308-0.346,0.687-0.518,1.136-0.518C52.478,31.89,52.861,32.05,53.144,32.374 M53.21,36.91c0.317-0.128,0.579-0.3,0.786-0.518    l-0.26-0.419c-0.191,0.196-0.42,0.349-0.689,0.453c-0.269,0.106-0.593,0.159-0.97,0.159c-0.538,0-0.973-0.21-1.305-0.631    c-0.332-0.42-0.498-0.939-0.498-1.56v-0.148h3.901v-0.52c0-0.716-0.194-1.287-0.582-1.717c-0.388-0.429-0.921-0.643-1.598-0.643    c-0.643,0-1.192,0.26-1.647,0.781c-0.454,0.521-0.681,1.176-0.681,1.966v0.28c0,0.787,0.228,1.434,0.684,1.942    s1.031,0.764,1.726,0.764C52.516,37.102,52.894,37.038,53.21,36.91 M42.918,31.47h-1.853v0.454l0.536,0.041l1.46,5.029h0.521    l1.21-3.778l0.24-0.955h0.03l0.24,0.955l1.231,3.778h0.52l1.466-5.029l0.536-0.041V31.47h-1.859v0.454l0.695,0.058l-0.868,3.221    l-0.23,1.011h-0.031l-0.265-1.011l-1.179-3.732h-0.521l-1.18,3.732l-0.26,0.985h-0.031l-0.209-0.985l-0.893-3.221l0.694-0.058    V31.47z"></path>
		<path clip-path="url(#SVGID_4_)" d="M36.415,11.416l-0.601,0.279c-0.744,0.4-2.279,1.355-3.239,2.861    c-0.002,0.003-0.007,0.004-0.009,0.007c-0.53,0.794-1.272,1.461-2.201,1.896c-2.701,1.259-5.911,0.091-7.171-2.61    c-0.104-0.225-0.186-0.453-0.258-0.683l-2.005,0.935c-0.659,0.307-1.443,0.022-1.751-0.638c-0.307-0.659-0.022-1.443,0.638-1.751    l0.099-0.046l-0.001-0.003c0,0,2.369-1.032,3.673-3.077c0.003-0.005,0.009-0.006,0.012-0.011c0.53-0.796,1.273-1.464,2.203-1.897    c2.701-1.259,5.911-0.091,7.171,2.61c0.107,0.229,0.19,0.465,0.263,0.7l2.063-0.962c0.66-0.308,1.444-0.021,1.752,0.639    C37.36,10.323,37.075,11.107,36.415,11.416 M38.99,11.48c0-1.506-0.288-2.928-0.863-4.266c-0.575-1.338-1.359-2.504-2.352-3.498    c-0.994-0.993-2.16-1.777-3.498-2.353c-1.338-0.574-2.76-0.862-4.266-0.862c-1.505,0-2.928,0.288-4.266,0.862    c-1.338,0.575-2.504,1.359-3.497,2.353c-0.994,0.994-1.778,2.16-2.353,3.498c-0.575,1.338-0.863,2.76-0.863,4.266    s0.288,2.928,0.863,4.267c0.575,1.338,1.359,2.505,2.353,3.498c0.993,0.992,2.159,1.776,3.497,2.352s2.761,0.863,4.266,0.863    c1.506,0,2.928-0.288,4.266-0.863s2.504-1.359,3.498-2.352c0.993-0.993,1.777-2.16,2.352-3.498    C38.702,14.408,38.99,12.986,38.99,11.48"></path>
	</g>
</g>
</svg>
