<?xml version="1.0" encoding="utf-8"?>
<!-- Generator: Adobe Illustrator 15.1.0, SVG Export Plug-In  -->
<!DOCTYPE svg PUBLIC "-//W3C//DTD SVG 1.1//EN" "http://www.w3.org/Graphics/SVG/1.1/DTD/svg11.dtd" [
	<!ENTITY ns_flows "http://ns.adobe.com/Flows/1.0/">
]>
<svg version="1.1"
	 xmlns="http://www.w3.org/2000/svg" xmlns:xlink="http://www.w3.org/1999/xlink" xmlns:a="http://ns.adobe.com/AdobeSVGViewerExtensions/3.0/"
	 x="0px" y="0px" width="108px" height="23px" viewBox="-0.4 0 108 23" overflow="visible" enable-background="new -0.4 0 108 23"
	 xml:space="preserve">
<defs>
</defs>
<polygon points="10.7,0.5 6.8,5.3 6.8,0.5 0,0.5 0,21.4 6.8,21.4 6.8,15 11.2,21.4 19.3,21.4 11.5,10.1 18.9,0.5 "/>
<polygon points="40.2,21.4 46.7,21.4 46.7,13.4 52.4,21.4 58,21.4 58,0.5 51.4,0.5 51.4,8.6 45.6,0.5 40.2,0.5 "/>
<g>
	<defs>
		<polyline id="SVGID_3_" points="0,39.1 0,0 152.3,0 		"/>
	</defs>
	<clipPath id="SVGID_4_">
		<use xlink:href="#SVGID_3_"  overflow="visible"/>
	</clipPath>
	<path clip-path="url(#SVGID_4_)" d="M59.6,21.2c0.5,0.1,1.1,0.3,1.7,0.4c0.5,0.1,1.1,0.2,1.8,0.3c0.7,0.1,1.4,0.1,2.2,0.1
		c1.3,0,2.5-0.2,3.4-0.5c1-0.3,1.8-0.8,2.4-1.4c0.6-0.6,1.1-1.3,1.4-2.1c0.3-0.8,0.4-1.7,0.4-2.6c0-0.9-0.1-1.7-0.4-2.4
		c-0.3-0.7-0.6-1.4-1-1.9c-0.4-0.6-0.9-1.1-1.3-1.5c-0.5-0.4-0.9-0.8-1.3-1.2c-0.4-0.3-0.8-0.6-1-0.9c-0.3-0.2-0.4-0.5-0.4-0.6
		c0-0.2,0.1-0.3,0.2-0.4c0.1-0.1,0.3-0.2,0.4-0.2s0.3-0.1,0.5-0.1c0.2,0,0.3,0,0.5,0c0.2,0,0.4,0,0.7,0c0.2,0,0.4,0,0.6,0.1
		c0.2,0,0.4,0,0.6,0.1V0.4c-0.4-0.1-0.9-0.1-1.3-0.2c-0.4,0-0.8-0.1-1.3-0.1C67.5,0,67,0,66.5,0c-1,0-1.9,0.1-2.7,0.4
		c-0.8,0.3-1.6,0.6-2.2,1.1c-0.6,0.5-1.1,1.1-1.5,1.9C59.7,4.2,59.5,5,59.5,6c0,0.9,0.1,1.7,0.4,2.3c0.3,0.7,0.7,1.3,1.1,1.8
		c0.4,0.5,0.9,1,1.4,1.4c0.5,0.4,1,0.8,1.4,1.1c0.4,0.3,0.8,0.7,1.1,0.9c0.3,0.3,0.4,0.6,0.4,0.8c0,0.7-0.5,1.1-1.4,1.1
		c-0.5,0-1.1,0-1.6-0.1c-0.5-0.1-1-0.1-1.4-0.3c-0.5-0.1-1-0.2-1.4-0.3V21.2z"/>
</g>
<polygon points="74.3,21.4 86.8,21.4 86.8,15.9 81,15.9 81,13.5 86.5,13.5 86.5,8.3 81,8.3 81,6 86.6,6 86.6,0.5 74.3,0.5 "/>
<polygon points="88.7,21.4 95.5,21.4 95.5,15 99.9,21.4 108,21.4 100.3,10.1 107.6,0.5 99.4,0.5 95.5,5.3 95.5,0.5 88.7,0.5 "/>
<g>
	<defs>
		<polyline id="SVGID_2_" points="0,39.1 0,0 152.3,0 		"/>
	</defs>
	<clipPath id="SVGID_5_">
		<use xlink:href="#SVGID_2_"  overflow="visible"/>
	</clipPath>
</g>
<g>
	<defs>
		<polyline id="SVGID_1_" points="0,39.1 0,0 152.3,0 		"/>
	</defs>
	<clipPath id="SVGID_6_">
		<use xlink:href="#SVGID_1_"  overflow="visible"/>
	</clipPath>
	<path clip-path="url(#SVGID_6_)" d="M36,11.4l-0.6,0.3c-0.7,0.4-2.3,1.4-3.2,2.9c0,0,0,0,0,0c-0.5,0.8-1.3,1.5-2.2,1.9
		c-2.7,1.3-5.9,0.1-7.2-2.6c-0.1-0.2-0.2-0.5-0.3-0.7l-2,0.9c-0.7,0.3-1.4,0-1.8-0.6c-0.3-0.7,0-1.4,0.6-1.8l0.1,0l0,0
		c0,0,2.4-1,3.7-3.1c0,0,0,0,0,0c0.5-0.8,1.3-1.5,2.2-1.9c2.7-1.3,5.9-0.1,7.2,2.6c0.1,0.2,0.2,0.5,0.3,0.7l2.1-1
		c0.7-0.3,1.4,0,1.8,0.6C37,10.3,36.7,11.1,36,11.4 M38.6,11.5c0-1.5-0.3-2.9-0.9-4.3c-0.6-1.3-1.4-2.5-2.4-3.5
		c-1-1-2.2-1.8-3.5-2.4c-1.3-0.6-2.8-0.9-4.3-0.9c-1.5,0-2.9,0.3-4.3,0.9c-1.3,0.6-2.5,1.4-3.5,2.4c-1,1-1.8,2.2-2.4,3.5
		s-0.9,2.8-0.9,4.3s0.3,2.9,0.9,4.3c0.6,1.3,1.4,2.5,2.4,3.5c1,1,2.2,1.8,3.5,2.4c1.3,0.6,2.8,0.9,4.3,0.9c1.5,0,2.9-0.3,4.3-0.9
		c1.3-0.6,2.5-1.4,3.5-2.4c1-1,1.8-2.2,2.4-3.5C38.3,14.4,38.6,13,38.6,11.5"/>
</g>
</svg>
